<svg width="34" height="34" viewBox="0 0 34 34" fill="none" xmlns="http://www.w3.org/2000/svg">
<path fill-rule="evenodd" clip-rule="evenodd" d="M26.7017 15C26.7017 19.4183 23.1199 23 18.7017 23C14.2834 23 10.7017 19.4183 10.7017 15C10.7017 10.5817 14.2834 7 18.7017 7C23.1199 7 26.7017 10.5817 26.7017 15ZM27.7017 15C27.7017 19.9706 23.6722 24 18.7017 24C16.5192 24 14.5181 23.2231 12.96 21.9309L6.69621 28.0054L6.00003 27.2875L12.2257 21.2499C10.663 19.6311 9.70167 17.4278 9.70167 15C9.70167 10.0294 13.7311 6 18.7017 6C23.6722 6 27.7017 10.0294 27.7017 15Z" fill="#836F5D"/>
</svg>
