<svg width="16" height="16" viewBox="0 0 16 16" fill="none" xmlns="http://www.w3.org/2000/svg">
<path d="M7.46667 4.8V5.33333H8.53333V4.8H7.46667ZM8.53333 4.78933V4.256H7.46667V4.78933H8.53333ZM8.53333 11.7333V7.46667H7.46667V11.7333H8.53333ZM8.53333 4.8V4.78933H7.46667V4.8H8.53333ZM6.4 8.53333H8V7.46667H6.4V8.53333ZM6.4 11.7333H9.6V10.6667H6.4V11.7333ZM8 1.06667C8.9105 1.06667 9.81208 1.246 10.6533 1.59444C11.4945 1.94287 12.2588 2.45357 12.9026 3.09739C13.5464 3.74121 14.0571 4.50554 14.4056 5.34673C14.754 6.18792 14.9333 7.0895 14.9333 8H16C16 5.87827 15.1571 3.84344 13.6569 2.34315C12.1566 0.842855 10.1217 0 8 0V1.06667ZM1.06667 8C1.06667 6.16117 1.79714 4.39765 3.09739 3.09739C4.39765 1.79714 6.16117 1.06667 8 1.06667V0C5.87827 0 3.84344 0.842855 2.34315 2.34315C0.842855 3.84344 0 5.87827 0 8H1.06667ZM8 14.9333C6.16117 14.9333 4.39765 14.2029 3.09739 12.9026C1.79714 11.6024 1.06667 9.83883 1.06667 8H0C0 10.1217 0.842855 12.1566 2.34315 13.6569C3.84344 15.1571 5.87827 16 8 16V14.9333ZM8 16C10.1217 16 12.1566 15.1571 13.6569 13.6569C15.1571 12.1566 16 10.1217 16 8H14.9333C14.9333 8.9105 14.754 9.81208 14.4056 10.6533C14.0571 11.4945 13.5464 12.2588 12.9026 12.9026C12.2588 13.5464 11.4945 14.0571 10.6533 14.4056C9.81208 14.754 8.9105 14.9333 8 14.9333V16Z" fill="#FAFAFA"/>
</svg>
